<svg width="652" height="235" viewBox="0 0 652 235" fill="none" xmlns="http://www.w3.org/2000/svg">
<path d="M280.589 102.362C280.887 102.674 281.12 103.043 281.274 103.447C281.428 103.852 281.5 104.282 281.486 104.715V149.948C281.498 150.427 281.416 150.905 281.244 151.352C281.072 151.799 280.813 152.208 280.483 152.555C280.153 152.902 279.755 153.176 279.313 153.359C278.871 153.541 278.396 153.629 277.918 153.615C277.377 153.616 276.839 153.53 276.325 153.36C275.853 153.215 275.43 152.944 275.1 152.576L245.918 114.423V150.34C245.943 151.183 245.634 152.001 245.059 152.615C244.483 153.23 243.689 153.589 242.849 153.615C242.785 153.617 242.721 153.617 242.656 153.615C242.229 153.631 241.803 153.557 241.406 153.396C241.01 153.235 240.652 152.992 240.355 152.682C240.06 152.37 239.83 152.003 239.678 151.6C239.526 151.198 239.455 150.77 239.469 150.34V105.012C239.458 104.534 239.546 104.059 239.728 103.618C239.91 103.176 240.181 102.778 240.524 102.447C240.846 102.116 241.232 101.855 241.659 101.682C242.086 101.509 242.544 101.426 243.005 101.44C243.59 101.437 244.171 101.549 244.714 101.769C245.209 101.961 245.643 102.283 245.97 102.701L275.027 140.939V104.715C275.014 104.298 275.083 103.882 275.231 103.491C275.378 103.101 275.6 102.743 275.885 102.439C276.17 102.135 276.512 101.89 276.891 101.719C277.271 101.547 277.68 101.453 278.095 101.44C278.16 101.438 278.224 101.438 278.288 101.44C278.715 101.424 279.139 101.498 279.536 101.657C279.932 101.816 280.29 102.056 280.589 102.362ZM340.537 102.362C341.169 103.067 341.502 103.99 341.466 104.937V133.553C341.527 137.251 340.632 140.902 338.87 144.151C337.201 147.215 334.721 149.757 331.703 151.495C328.577 153.297 325.027 154.226 321.423 154.187C317.786 154.245 314.2 153.334 311.027 151.548C307.996 149.817 305.504 147.274 303.829 144.204C302.067 140.955 301.172 137.304 301.233 133.605V104.99C301.219 104.511 301.306 104.034 301.488 103.59C301.67 103.146 301.942 102.746 302.288 102.415C302.641 102.069 303.058 101.797 303.517 101.615C303.975 101.433 304.466 101.345 304.959 101.355C305.423 101.356 305.883 101.45 306.31 101.632C306.738 101.814 307.125 102.08 307.448 102.415C307.79 102.74 308.061 103.133 308.243 103.569C308.425 104.006 308.514 104.475 308.504 104.948V133.563C308.466 136.006 309.082 138.414 310.288 140.537C311.405 142.514 313.023 144.159 314.979 145.304C316.935 146.449 319.158 147.053 321.422 147.054C323.736 147.071 326.014 146.479 328.03 145.338C330.063 144.209 331.755 142.551 332.927 140.537C334.152 138.421 334.78 136.01 334.742 133.563V104.948C334.708 104.009 335.024 103.09 335.629 102.373C335.937 102.026 336.316 101.752 336.741 101.569C337.166 101.386 337.626 101.299 338.088 101.313C338.547 101.302 339.003 101.39 339.425 101.571C339.847 101.752 340.227 102.022 340.537 102.362ZM397.668 148.251C398.113 148.867 398.347 149.611 398.333 150.371C398.352 150.845 398.268 151.318 398.086 151.755C397.903 152.193 397.627 152.585 397.278 152.904C396.625 153.524 395.76 153.869 394.861 153.869C394.293 153.89 393.729 153.765 393.222 153.505C392.716 153.245 392.285 152.86 391.969 152.385L377.542 133.043L363.441 152.353C363.128 152.836 362.7 153.232 362.194 153.504C361.689 153.777 361.123 153.916 360.55 153.911C360.128 153.92 359.709 153.842 359.318 153.682C358.928 153.521 358.575 153.282 358.281 152.978C357.989 152.708 357.756 152.381 357.596 152.016C357.436 151.651 357.353 151.257 357.352 150.859C357.368 149.961 357.684 149.095 358.249 148.4L373.469 127.596L358.176 106.951C357.698 106.347 357.435 105.601 357.426 104.831C357.417 104.358 357.506 103.889 357.687 103.452C357.869 103.016 358.14 102.623 358.482 102.298C358.805 101.963 359.192 101.697 359.62 101.515C360.047 101.333 360.507 101.239 360.972 101.238C361.525 101.241 362.07 101.371 362.565 101.62C363.088 101.869 363.536 102.253 363.864 102.732L378.123 121.967L392.244 102.922C392.552 102.445 392.967 102.047 393.457 101.761C393.947 101.476 394.497 101.311 395.062 101.28C395.505 101.282 395.942 101.378 396.346 101.56C396.749 101.743 397.11 102.008 397.405 102.339C397.726 102.627 397.985 102.978 398.167 103.369C398.348 103.761 398.448 104.186 398.461 104.618C398.436 105.383 398.178 106.123 397.722 106.737L382.227 127.448L397.668 148.251ZM451.232 102.362C451.577 102.678 451.85 103.065 452.032 103.497C452.214 103.929 452.301 104.395 452.287 104.863C452.3 105.326 452.212 105.785 452.03 106.21C451.847 106.634 451.575 107.014 451.232 107.322C450.517 107.929 449.602 108.247 448.667 108.212H435.453V150.044C435.462 150.517 435.373 150.986 435.191 151.422C435.009 151.858 434.739 152.251 434.397 152.577C433.651 153.246 432.685 153.615 431.685 153.615C430.684 153.615 429.719 153.246 428.972 152.577C428.632 152.25 428.363 151.857 428.182 151.421C428 150.985 427.91 150.516 427.917 150.044V108.212H414.735C413.797 108.248 412.881 107.918 412.181 107.29C411.845 106.97 411.582 106.581 411.409 106.149C411.236 105.718 411.157 105.255 411.178 104.79C411.163 104.337 411.245 103.886 411.418 103.468C411.591 103.049 411.851 102.672 412.181 102.363C412.881 101.736 413.797 101.405 414.735 101.441H448.667C449.607 101.407 450.526 101.736 451.232 102.362Z" fill="white"/>
<path d="M467.485 152.28C465.082 150.913 463.083 148.931 461.691 146.536C461.278 145.943 461.044 145.244 461.016 144.522C461.015 144.06 461.115 143.604 461.308 143.185C461.502 142.765 461.784 142.394 462.134 142.095C462.739 141.46 463.562 141.081 464.435 141.035C465.091 141.097 465.727 141.294 466.303 141.615C466.879 141.936 467.382 142.374 467.781 142.9C468.592 144.24 469.737 145.344 471.103 146.102C472.469 146.861 474.009 147.247 475.57 147.224C476.846 147.254 478.115 147.026 479.301 146.552C480.487 146.079 481.566 145.37 482.473 144.469C483.388 143.598 484.112 142.545 484.599 141.377C485.086 140.209 485.325 138.952 485.301 137.686V105.012C485.296 104.534 485.391 104.062 485.583 103.625C485.774 103.188 486.056 102.797 486.409 102.479C487.101 101.795 488.035 101.414 489.006 101.419C489.491 101.395 489.976 101.472 490.43 101.646C490.884 101.819 491.297 102.084 491.644 102.426C491.976 102.762 492.236 103.163 492.409 103.604C492.581 104.045 492.662 104.517 492.647 104.99V137.739C492.675 140.674 491.905 143.561 490.42 146.09C488.949 148.61 486.836 150.691 484.299 152.12C481.639 153.633 478.626 154.408 475.57 154.367C472.739 154.397 469.951 153.677 467.485 152.28ZM518.526 152.831C515.585 151.709 512.886 150.029 510.579 147.881C510.109 147.519 509.726 147.056 509.457 146.526C509.189 145.996 509.042 145.413 509.027 144.818C509.033 144.365 509.129 143.918 509.311 143.502C509.492 143.087 509.755 142.713 510.083 142.402C510.395 142.064 510.774 141.795 511.196 141.613C511.618 141.43 512.072 141.338 512.532 141.342C513.313 141.331 514.069 141.624 514.642 142.158C516.425 143.867 518.498 145.242 520.764 146.217C523.043 147.127 525.479 147.574 527.93 147.531C530.723 147.62 533.477 146.863 535.835 145.359C536.8 144.815 537.605 144.027 538.172 143.073C538.739 142.119 539.047 141.033 539.065 139.922C539.083 138.728 538.796 137.55 538.23 136.499C537.665 135.449 536.84 134.562 535.835 133.923C532.871 132.175 529.618 130.976 526.232 130.384C521.936 129.693 517.884 127.921 514.453 125.233C513.07 123.997 511.982 122.465 511.27 120.75C510.557 119.034 510.238 117.18 510.337 115.324C510.279 112.553 511.091 109.835 512.659 107.555C514.253 105.292 516.447 103.522 518.992 102.447C521.902 101.214 525.037 100.604 528.195 100.656C531.155 100.637 534.096 101.143 536.881 102.15C539.338 102.982 541.589 104.33 543.487 106.103C543.988 106.474 544.401 106.951 544.696 107.501C544.992 108.051 545.163 108.659 545.197 109.283C545.197 109.727 545.108 110.167 544.936 110.577C544.764 110.986 544.512 111.357 544.194 111.667C543.891 112.008 543.518 112.279 543.101 112.462C542.684 112.645 542.232 112.735 541.777 112.727C541.155 112.751 540.547 112.534 540.078 112.122C538.538 110.672 536.717 109.557 534.727 108.847C532.667 108.013 530.468 107.575 528.247 107.554C525.464 107.411 522.705 108.129 520.342 109.611C519.438 110.212 518.697 111.029 518.184 111.987C517.671 112.946 517.403 114.018 517.403 115.106C517.403 116.194 517.671 117.266 518.184 118.225C518.697 119.184 519.438 120 520.342 120.601C523.045 122.185 525.996 123.296 529.07 123.888C532.334 124.533 535.519 125.531 538.569 126.866C540.871 127.888 542.839 129.541 544.247 131.635C545.674 134.042 546.368 136.817 546.242 139.615C546.283 142.366 545.439 145.058 543.836 147.289C542.148 149.589 539.878 151.393 537.26 152.513C534.383 153.778 531.271 154.413 528.131 154.379C524.863 154.439 521.611 153.915 518.526 152.831Z" fill="white"/>
<path d="M135.793 153C135.718 152.867 135.651 152.729 135.593 152.587C135.188 151.646 135.063 150.608 135.234 149.598H111.286L146.875 86.7086L158.559 107.333L161.947 101.313L151.762 83.2959C151.274 82.3731 150.563 81.5878 149.695 81.012C148.826 80.4363 147.828 80.0883 146.791 80C145.756 80.0476 144.756 80.3857 143.903 80.9758C143.051 81.566 142.38 82.3846 141.968 83.3385L105.914 146.991C105.375 147.89 105.064 148.908 105.009 149.955C104.954 151.003 105.156 152.048 105.597 152.999C106.152 153.877 106.94 154.582 107.873 155.033C108.805 155.485 109.845 155.665 110.874 155.554H141.07C140.041 155.667 139.001 155.487 138.068 155.036C137.135 154.584 136.347 153.879 135.793 153Z" fill="#00C492"/>
<path d="M205.22 146.991L175.594 94.583C175.108 93.6503 174.396 92.8556 173.523 92.2721C172.651 91.6887 171.646 91.3353 170.602 91.2448C169.568 91.2895 168.567 91.6253 167.714 92.2137C166.862 92.8021 166.191 93.6195 165.778 94.5725L161.947 101.313L165.356 107.333L170.632 97.9534L199.943 149.598H188.797C188.94 150.452 188.86 151.328 188.565 152.142C188.503 152.321 188.425 152.495 188.333 152.661L188.238 152.852C187.632 153.71 186.825 154.406 185.888 154.877C184.951 155.349 183.913 155.581 182.866 155.554H200.302C201.349 155.582 202.388 155.35 203.325 154.879C204.262 154.407 205.069 153.711 205.674 152.852C206.151 151.93 206.362 150.892 206.282 149.856C206.201 148.82 205.834 147.828 205.22 146.991Z" fill="#008776"/>
<path d="M188.238 152.852L188.333 152.661C188.425 152.495 188.503 152.321 188.565 152.142C188.86 151.328 188.94 150.452 188.797 149.598C188.633 148.677 188.304 147.794 187.826 146.991L165.378 107.333L161.948 101.313L158.539 107.333L136.1 146.992C135.664 147.805 135.372 148.687 135.235 149.599C135.054 150.606 135.168 151.644 135.562 152.588C135.62 152.73 135.687 152.868 135.763 153.001C136.317 153.879 137.106 154.583 138.038 155.035C138.971 155.486 140.011 155.666 141.04 155.555H182.834C183.887 155.586 184.931 155.356 185.874 154.884C186.816 154.413 187.628 153.714 188.238 152.852ZM161.947 113.352L182.465 149.598H141.44L161.947 113.352Z" fill="white"/>
</svg>
