<svg width="652" height="235" viewBox="0 0 652 235" fill="none" xmlns="http://www.w3.org/2000/svg">
<path fill-rule="evenodd" clip-rule="evenodd" d="M212 111.3H201.2V132.2C201.2 137.8 204.9 137.7 212 137.4V145.9C197.5 147.6 191.8 143.6 191.8 132.3V111.4H183.8V102.3H191.8V90.6L201.2 87.8V102.3H212V111.3ZM253.2 102.2H262.6V145.8H253.2V139.5C249.9 144.1 244.7 146.9 237.9 146.9C226 146.9 216.2 136.9 216.2 124C216.2 111 226.1 101.1 237.9 101.1C244.7 101.1 249.9 103.9 253.2 108.4V102.2ZM239.4 138C247.3 138 253.2 132.2 253.2 124C253.2 115.9 247.3 110 239.4 110C231.6 110 225.6 115.8 225.6 124C225.6 132.2 231.6 138 239.4 138ZM278.3 95.7C275 95.7 272.3 92.9 272.3 89.7C272.3 86.4 275 83.7 278.3 83.7C281.6 83.7 284.3 86.4 284.3 89.7C284.4 92.9 281.6 95.7 278.3 95.7ZM273.6 145.8V102.2H283V145.8H273.6ZM293.9 145.8V82.1H303.3V145.8H293.9ZM364.5 102.2H374.4L360.7 145.8H351.5L342.4 116.4L333.2 145.8H324L310.3 102.2H320.2L328.7 132.3L337.9 102.2H346.9L356 132.3L364.5 102.2ZM386.2 95.7C382.9 95.7 380.2 92.9 380.2 89.7C380.2 86.4 382.9 83.7 386.2 83.7C389.5 83.7 392.2 86.4 392.2 89.7C392.2 92.9 389.5 95.7 386.2 95.7ZM381.4 145.8V102.2H390.8V145.8H381.4ZM424.7 101.1C434.5 101.1 441.5 107.7 441.5 119.1V145.9H432.1V120C432.1 113.4 428.3 109.9 422.3 109.9C416.1 109.9 411.2 113.6 411.2 122.5V145.9H401.8V102.3H411.2V107.9C414.1 103.3 418.8 101.1 424.7 101.1ZM486.1 84.8H495.5V145.9H486.1V139.6C482.8 144.2 477.6 147 470.8 147C458.9 147 449.1 137 449.1 124.1C449.1 111.1 459 101.2 470.8 101.2C477.6 101.2 482.8 104 486.1 108.5V84.8ZM472.4 138C480.3 138 486.2 132.2 486.2 124C486.2 115.9 480.3 110 472.4 110C464.6 110 458.6 115.8 458.6 124C458.6 132.2 464.5 138 472.4 138ZM527.1 147C513.9 147 504.1 137 504.1 124.1C504.1 111.1 514 101.2 527.1 101.2C535.7 101.2 543.1 105.6 546.6 112.5L538.5 117.2C536.6 113.1 532.3 110.5 527.1 110.5C519.4 110.5 513.6 116.3 513.6 124.2C513.6 132.1 519.4 137.9 527.1 137.9C532.3 137.9 536.6 135.2 538.7 131.2L546.8 135.8C543.1 142.5 535.7 147 527.1 147ZM562.3 114.3C562.3 122.2 585.8 117.4 585.8 133.6C585.8 142.3 578.2 147 568.8 147C560.1 147 553.8 143.1 551 136.8L559.1 132.1C560.5 136 564 138.4 568.8 138.4C573 138.4 576.2 137 576.2 133.5C576.2 125.7 552.7 130.1 552.7 114.5C552.7 106.3 559.8 101.2 568.7 101.2C575.9 101.2 581.8 104.5 584.8 110.3L576.9 114.7C575.3 111.3 572.3 109.7 568.7 109.7C565.3 109.6 562.3 111.1 562.3 114.3ZM602.5 114.3C602.5 122.2 626 117.4 626 133.6C626 142.3 618.4 147 609 147C600.3 147 594 143.1 591.2 136.8L599.3 132.1C600.7 136 604.2 138.4 609 138.4C613.2 138.4 616.4 137 616.4 133.5C616.4 125.7 592.9 130.1 592.9 114.5C592.9 106.3 600 101.2 608.9 101.2C616.1 101.2 622 104.5 625 110.3L617.1 114.7C615.5 111.3 612.5 109.7 608.9 109.7C605.5 109.6 602.5 111.1 602.5 114.3Z" fill="white"/>
<path fill-rule="evenodd" clip-rule="evenodd" d="M88 80C71.5 80 61.1 88.3 57 104.8C63.2 96.5 70.4 93.4 78.7 95.5C83.4 96.7 86.8 100.1 90.5 103.9C96.6 110.1 103.6 117.2 119 117.2C135.5 117.2 145.9 108.9 150 92.4C143.8 100.7 136.6 103.8 128.3 101.7C123.6 100.5 120.2 97.1 116.5 93.3C110.4 87.1 103.4 80 88 80ZM57 117.1C40.5 117.1 30.1 125.4 26 141.9C32.2 133.6 39.4 130.5 47.7 132.6C52.4 133.8 55.8 137.2 59.5 141C65.6 147.2 72.6 154.3 88 154.3C104.5 154.3 114.9 146 119 129.5C112.8 137.8 105.6 140.9 97.3 138.8C92.6 137.6 89.2 134.2 85.5 130.4C79.4 124.3 72.4 117.1 57 117.1Z" fill="#06B6D4"/>
</svg>
