<svg width="652" height="235" viewBox="0 0 652 235" fill="none" xmlns="http://www.w3.org/2000/svg">
<path fill-rule="evenodd" clip-rule="evenodd" d="M242.474 73H263L211.171 162L159 73H179.993L211.171 126.58L242.474 73Z" fill="#41B883"/>
<path fill-rule="evenodd" clip-rule="evenodd" d="M223.371 73H243L211.373 127L180 73H199.322L211.373 93.7891L223.371 73Z" fill="white"/>
<path fill-rule="evenodd" clip-rule="evenodd" d="M298.839 76.386C298.839 75.4603 299.356 74.6888 300.388 74.0716C301.421 73.4545 302.501 73.1459 303.628 73.1459C305.192 73.1459 306.163 73.7322 306.538 74.9048L323.063 129.893L339.494 74.9048C339.933 73.7322 340.871 73.1459 342.311 73.1459C343.5 73.1459 344.611 73.4853 345.644 74.1642C346.677 74.843 347.194 75.6145 347.194 76.4786C347.194 76.5403 347.178 76.6329 347.147 76.7563C347.115 76.8797 347.1 77.0031 347.1 77.1266L328.04 138.688C327.351 140.478 325.692 141.373 323.063 141.373C320.434 141.373 318.838 140.478 318.275 138.688L299.028 77.1266C298.903 76.7563 298.839 76.5094 298.839 76.386ZM347.933 123.783V99.7145C347.933 98.9739 348.325 98.3259 349.107 97.7704C349.889 97.215 350.813 96.9373 351.877 96.9373C352.878 96.9373 353.77 97.2304 354.553 97.8167C355.335 98.403 355.726 99.0356 355.726 99.7144V123.783C355.726 126.56 356.791 129.06 358.919 131.281C361.047 133.503 363.582 134.614 366.524 134.614C369.403 134.614 371.907 133.519 374.035 131.328C376.164 129.137 377.228 126.622 377.228 123.783V99.6204C377.228 98.9416 377.619 98.3244 378.401 97.769C379.184 97.2136 380.107 96.9359 381.171 96.9359C382.298 96.9359 383.221 97.1981 383.941 97.7228C384.661 98.2473 385.021 98.8799 385.021 99.6205V123.783C385.021 128.535 383.19 132.685 379.528 136.234C375.866 139.783 371.532 141.557 366.524 141.557C361.454 141.557 357.088 139.783 353.426 136.234C349.765 132.685 347.933 128.535 347.933 123.783ZM391.393 123.598V113.878C391.393 109.125 393.224 105.021 396.885 101.565C400.547 98.1093 404.944 96.3812 410.077 96.3812C414.96 96.3812 419.185 98.0013 422.753 101.241C426.321 104.481 428.105 108.539 428.105 113.415C428.105 115.204 427.885 116.639 427.447 117.72C427.009 118.8 426.336 119.571 425.429 120.034C424.521 120.497 423.676 120.79 422.894 120.913C422.111 121.037 421.063 121.099 419.748 121.099H399.185V123.876C399.185 127.27 400.422 129.986 402.894 132.022C405.367 134.059 408.575 135.077 412.518 135.077C414.584 135.077 416.383 134.769 417.917 134.151C419.45 133.534 420.687 132.933 421.626 132.346C422.565 131.76 423.316 131.467 423.879 131.467C424.755 131.467 425.506 131.853 426.132 132.624C426.758 133.395 427.071 134.182 427.071 134.985C427.071 136.404 425.647 137.854 422.799 139.335C419.951 140.817 416.43 141.557 412.236 141.557C406.102 141.557 401.095 139.906 397.214 136.605C393.333 133.303 391.393 128.967 391.393 123.598ZM399.186 115.914H416.556C418.183 115.914 419.279 115.714 419.842 115.313C420.406 114.911 420.687 114.125 420.687 112.952C420.687 110.175 419.654 107.737 417.589 105.639C415.523 103.54 412.988 102.491 409.983 102.491C407.041 102.491 404.506 103.463 402.378 105.407C400.25 107.351 399.186 109.743 399.186 112.581L399.186 115.914ZM432.037 136.558C432.037 135.2 432.506 134.043 433.445 133.086C434.384 132.13 435.542 131.652 436.919 131.652C438.233 131.652 439.36 132.13 440.299 133.086C441.238 134.043 441.707 135.2 441.707 136.558C441.707 137.854 441.238 138.98 440.299 139.937C439.36 140.893 438.233 141.372 436.919 141.372C435.542 141.372 434.384 140.893 433.445 139.937C432.506 138.98 432.037 137.854 432.037 136.558ZM438.973 158.683C438.973 157.696 439.286 156.878 439.912 156.23C440.538 155.582 441.289 155.258 442.165 155.258C444.606 155.258 446.203 154.363 446.954 152.573C447.705 150.784 448.08 148.099 448.08 144.519V99.6212C448.08 98.8189 448.44 98.1709 449.16 97.6771C449.88 97.1834 450.803 96.9366 451.93 96.9366C453.057 96.9366 453.996 97.1834 454.747 97.6771C455.498 98.1709 455.874 98.8189 455.874 99.6212V144.52C455.874 149.889 454.809 154.147 452.681 157.295C450.553 160.442 447.329 162.016 443.01 162.016C440.319 162.016 438.973 160.905 438.973 158.683ZM447.048 80.4584C447.048 79.2858 447.517 78.2676 448.456 77.4035C449.395 76.5395 450.553 76.1075 451.93 76.1075C453.244 76.1075 454.371 76.5395 455.31 77.4035C456.249 78.2675 456.718 79.2858 456.718 80.4584C456.718 81.631 456.249 82.6648 455.31 83.5596C454.371 84.4545 453.244 84.902 451.93 84.902C450.615 84.902 449.473 84.4545 448.503 83.5596C447.533 82.6648 447.048 81.631 447.048 80.4584ZM461.683 134.521C461.683 133.718 461.949 132.931 462.481 132.16C463.013 131.389 463.655 131.003 464.406 131.003C464.907 131.003 465.626 131.373 466.565 132.114C467.504 132.854 468.85 133.58 470.603 134.289C472.355 134.999 474.421 135.354 476.799 135.354C479.929 135.354 482.198 134.798 483.606 133.688C485.015 132.577 485.719 131.188 485.719 129.522C485.719 127.485 484.937 125.865 483.372 124.662C481.807 123.458 479.898 122.548 477.644 121.931C475.391 121.314 473.137 120.635 470.884 119.894C468.631 119.153 466.721 117.919 465.157 116.191C463.592 114.463 462.809 112.18 462.809 109.341C462.809 105.823 464.077 102.783 466.612 100.222C469.147 97.661 473.012 96.3805 478.207 96.3805C481.525 96.3805 484.561 96.8896 487.315 97.9079C490.069 98.9262 491.446 100.083 491.446 101.379C491.446 102.12 491.149 102.953 490.554 103.879C489.96 104.805 489.224 105.267 488.348 105.267C488.097 105.267 486.892 104.82 484.733 103.925C482.573 103.03 480.429 102.583 478.301 102.583C475.422 102.583 473.278 103.246 471.87 104.573C470.461 105.9 469.757 107.397 469.757 109.063C469.757 110.791 470.54 112.149 472.104 113.136C473.669 114.124 475.594 114.895 477.879 115.451C480.163 116.006 482.432 116.685 484.686 117.487C486.939 118.29 488.848 119.663 490.413 121.607C491.978 123.551 492.761 126.066 492.761 129.151C492.761 132.978 491.384 136.002 488.63 138.224C485.875 140.445 482.026 141.556 477.081 141.556C472.824 141.556 469.194 140.8 466.189 139.288C463.185 137.776 461.683 136.187 461.683 134.521Z" fill="white"/>
</svg>
